<svg xmlns="http://www.w3.org/2000/svg" width="79.486" height="57.667" viewBox="0 0 79.486 57.667">
  <path id="logo" d="M587.342,295.692c0-14.867-9.312-27.1-21.274-28.661l-.007-.172h-19.4a4.524,4.524,0,0,0-3.96,2.739l-2.527,5.228c-1.777,3.646-6.142,3.646-7.919,0l-2.527-5.228a4.524,4.524,0,0,0-3.959-2.739H507.856l.479,10.526H530.8L530.319,314H507.856v10.526h17.913a4.524,4.524,0,0,0,3.959-2.739l2.527-5.228c1.777-3.646,6.142-3.646,7.919,0l2.527,5.228a4.524,4.524,0,0,0,3.96,2.739h19.4v-.171C578.026,322.8,587.342,310.562,587.342,295.692ZM563.478,313.07v.2H543.6l.479-34.964h19.4v0c7.942,0,14.383,7.782,14.383,17.378S571.42,313.07,563.478,313.07Z" transform="translate(-507.856 -266.859)" fill="#000"/>
</svg>
